<svg xmlns="http://www.w3.org/2000/svg" xmlns:xlink="http://www.w3.org/1999/xlink" viewBox="0 0 343 335.31"><defs><style>.cls-1{fill:#00b8f5;}.cls-2{fill:url(#linear-gradient);}.cls-3{fill:url(#linear-gradient-2);}.cls-4{fill:url(#linear-gradient-3);}</style><linearGradient id="linear-gradient" x1="127.54" y1="171.98" x2="53.64" y2="245.87" gradientTransform="matrix(-1, 0, 0, 1, 343, 0)" gradientUnits="userSpaceOnUse"><stop offset="0" stop-color="#dde80d"/><stop offset="0.04" stop-color="#d3e30f"/><stop offset="0.39" stop-color="#7ab81d"/><stop offset="0.68" stop-color="#389828"/><stop offset="0.89" stop-color="#0f842e"/><stop offset="1" stop-color="#007d31"/></linearGradient><linearGradient id="linear-gradient-2" x1="121.53" y1="127.23" x2="-3.79" y2="119.74" xlink:href="#linear-gradient"/><linearGradient id="linear-gradient-3" x1="156.28" y1="96.15" x2="47.93" y2="-12.19" xlink:href="#linear-gradient"/></defs><title>Asset 4</title><g id="Layer_2" data-name="Layer 2"><g id="Layer_1-2" data-name="Layer 1"><path class="cls-1" d="M299.29,245.88A157.35,157.35,0,0,1,0,175.73C1.19,92.05,68.7,23.31,152.35,20.73a156.73,156.73,0,0,1,107,37.52,144.92,144.92,0,0,0-89.15-28.89C91.9,30.48,28,94.42,26.89,172.75a145.48,145.48,0,0,0,272.4,73.13Z"/><path class="cls-2" d="M229.14,153.62l16.12,26.46s-20.26-9.09-62-38c0,0,8.27,104.2,116.61,112.47C299.85,254.51,297.78,183.8,229.14,153.62Z"/><path class="cls-3" d="M221.66,102.07l30.12,7.31s-20.76,7.9-70.76,17c0,0,79.53,67.84,162-2.92C343,123.42,291.54,74.88,221.66,102.07Z"/><path class="cls-4" d="M180.14,70.71,206.6,54.58s-9.1,20.26-38,62c0,0,104.2-8.27,112.47-116.61C281,0,210.32,2.07,180.14,70.71Z"/><circle class="cls-1" cx="119.6" cy="130.72" r="16.47"/><path class="cls-1" d="M168,130.72a129.87,129.87,0,0,1-31,33.57c-24.89,18.92-61.35,3.6-64.6-27.49l-.06-.58c-7.07,34.46-1.93,71.94,15.28,102.63a149.43,149.43,0,0,0,78.82,66.78c-16.87-10.83-29.6-24.86-38-43.05s-9.53-40.38.1-58c7.18-13.12,19.42-22.58,29.09-34S173.25,144.71,168,130.72Z"/></g></g></svg>